{"title":"Girls Gone Dead 2012 UNRATED HDRip XviD HS","uid":7461870,"size":1975285458,"categoryP":"video","categoryS":"movies","magnet":"?xt=urn:btih:b37ccac7ed996f4bb96c707ef524e1745ed1fc58&amp;dn=Girls+Gone+Dead+2012+UNRATED+HDRip+XviD+HS&amp;tr=udp%3A%2F%2Ftracker.openbittorrent.com%3A80&amp;tr=udp%3A%2F%2Fopen.demonii.com%3A1337&amp;tr=udp%3A%2F%2Ftracker.coppersurfer.tk%3A6969&amp;tr=udp%3A%2F%2Fexodus.desync.com%3A6969","seeders":1,"leechers":0,"uploader":"HeroMaster","files":-1,"time":1342845808,"description":"Girls Gone Dead 2012 UNRATED HDRip XviD HS\n\nSource--- Who Else\n &lt;a href=&quot;\nhttp://www.imdb.com/title/tt1884318/&quot; rel=&quot;nofollow&quot; target=&quot;_NEW&quot;&gt;\nhttp://www.imdb.com/title/tt1884318/&lt;/a&gt;\n\nFormat : AVI\nFormat/Info : Audio Video Interleave\nFormat profile : OpenDML\nFile size : 1.84 GiB\nDuration : 1h 43mn\nOverall bit rate : 2 544 Kbps\nWriting application : Lavf52.103.0\n\nVideo\nID : 1\nFormat : MPEG-4 Visual\nFormat profile : Simple@L1\nFormat settings, BVOP : No\nFormat settings, QPel : No\nFormat settings, GMC : No warppoints\nFormat settings, Matrix : Default (H.263)\nCodec ID : XVID\nDuration : 1h 43mn\nBit rate : 2 404 Kbps\nWidth : 640 pixels\nHeight : 274 pixels\nDisplay aspect ratio : 2.35:1\nFrame rate : 23.976 fps\nColor space : YUV\nChroma subsampling : 4:2:0\nBit depth : 8 bits\nScan type : Progressive\nCompression mode : Lossy\nBits/(Pixel*Frame) : 0.572\nStream size : 1.74 GiB (94%)\nWriting library : Lavc52.116.0\n\nAudio\nID : 0\nFormat : MPEG Audio\nFormat version : Version 1\nFormat profile : Layer 3\nMode : Joint stereo\nMode extension : MS Stereo\nCodec ID : 55\nCodec ID/Hint : MP3\nDuration : 1h 43mn\nBit rate mode : Constant\nBit rate : 128 Kbps\nChannel(s) : 2 channels\nSampling rate : 44.1 KHz\nCompression mode : Lossy\nStream size : 94.8 MiB (5%)\nAlignment : Aligned on interleaves\nInterleave, duration : 42 ms (1.00 video frame)\nWriting library : LAME3.98.4\n\n\nPoster:\n\n &lt;a href=&quot;\nhttp://i.imgur.com/vFonP.jpg&quot; rel=&quot;nofollow&quot; target=&quot;_NEW&quot;&gt;\nhttp://i.imgur.com/vFonP.jpg&lt;/a&gt;\n\n\nScreenshots:\n\n &lt;a href=&quot;\nhttp://i.imgur.com/1yNA2.png&quot; rel=&quot;nofollow&quot; target=&quot;_NEW&quot;&gt;\nhttp://i.imgur.com/1yNA2.png&lt;/a&gt;\n\n &lt;a href=&quot;\nhttp://i.imgur.com/pHeRe.png&quot; rel=&quot;nofollow&quot; target=&quot;_NEW&quot;&gt;\nhttp://i.imgur.com/pHeRe.png&lt;/a&gt;\n\n &lt;a href=&quot;\nhttp://i.imgur.com/nUFAG.png&quot; rel=&quot;nofollow&quot; target=&quot;_NEW&quot;&gt;\nhttp://i.imgur.com/nUFAG.png&lt;/a&gt;\n\n\nENJOY!","torrent":{"xt":"urn:btih:b37ccac7ed996f4bb96c707ef524e1745ed1fc58","amp;dn":"Girls+Gone+Dead+2012+UNRATED+HDRip+XviD+HS","amp;tr":["udp%3A%2F%2Ftracker.openbittorrent.com%3A80","udp%3A%2F%2Fopen.demonii.com%3A1337","udp%3A%2F%2Ftracker.coppersurfer.tk%3A6969","udp%3A%2F%2Fexodus.desync.com%3A6969"],"infoHash":"b37ccac7ed996f4bb96c707ef524e1745ed1fc58","infoHashBuffer":{"type":"Buffer","data":[179,124,202,199,237,153,111,75,185,108,112,126,245,36,225,116,94,209,252,88]},"announce":[],"urlList":[]}}